<svg width="1500" height="1500" viewBox="0 0 1500 1500" fill="none" xmlns="http://www.w3.org/2000/svg">
<path fill-rule="evenodd" clip-rule="evenodd" d="M1348.72 1168.37C1360.03 1142.67 1361.13 1113.74 1351.94 1087.55C1361.08 1064.58 1362.52 1038.87 1356.33 1014.97C1353.1 1002.63 1347.95 991.175 1341.12 980.965C1342.52 976.029 1343.6 970.929 1344.36 965.659C1349.44 930.378 1337.38 896.408 1313.59 870.403C1302.83 858.64 1289.91 849.894 1275.97 844.105C1284.44 805.888 1288.9 766.185 1288.9 725.475C1288.9 425.12 1046.33 181.36 746.772 181.36C447.213 181.36 204.644 425.12 204.644 725.475C204.644 767.136 209.317 807.743 218.176 846.781C206.46 852.482 195.618 860.354 186.431 870.403C162.65 896.406 150.585 930.384 155.658 965.659C156.415 970.926 157.505 976.031 158.904 980.965C152.074 991.175 146.922 1002.63 143.692 1014.97C137.445 1038.82 138.958 1064.63 148.078 1087.54C138.888 1113.74 139.992 1142.68 151.301 1168.37C171.605 1214.49 218.813 1243.21 283.614 1269C355.654 1297.68 435.229 1318.64 516.715 1318.64C582.532 1318.64 639.737 1302.62 681.509 1265.68C702.919 1268.26 724.699 1269.59 746.772 1269.59C770.797 1269.59 794.475 1268.02 817.706 1264.97C859.527 1302.39 917.048 1318.64 983.305 1318.64C1065.11 1318.64 1144.1 1297.79 1216.41 1269C1281.21 1243.21 1328.42 1214.49 1348.72 1168.37ZM1201.48 1231.5C1265.52 1206.01 1298.5 1182.26 1311.77 1152.11C1321.11 1130.89 1319.46 1106.41 1307.02 1086.84C1323.52 1061.54 1320.36 1036.98 1317.28 1025.19C1313.34 1010.15 1305.2 997.644 1294.14 988.661C1299.38 979.912 1302.89 970.461 1304.41 959.918C1307.59 937.779 1300.28 915.653 1283.81 897.648C1278.56 891.903 1272.36 887.26 1265.59 883.763C1253.45 877.49 1239.44 874.904 1225.67 876.26C1229.83 862.94 1233.45 849.38 1236.51 835.609C1244.38 800.161 1248.53 763.306 1248.53 725.476C1248.53 447.262 1023.89 221.726 746.772 221.726C469.656 221.726 245.01 447.262 245.01 725.476C245.01 763.44 249.193 800.424 257.122 835.988C260.135 849.506 263.69 862.818 267.762 875.901C254.074 875.791 240.392 879.604 228.93 886.961C224.276 889.948 219.988 893.519 216.214 897.648C199.743 915.653 192.427 937.779 195.613 959.918C197.128 970.461 200.637 979.912 205.881 988.661C194.823 997.644 186.678 1010.15 182.742 1025.19C179.66 1036.98 176.501 1061.54 192.997 1086.84C180.564 1106.41 178.908 1130.89 188.245 1152.11C201.517 1182.26 234.498 1206.01 298.542 1231.5C367.636 1259 441.978 1278.27 516.715 1278.27C584.432 1278.27 634.963 1259.67 667.239 1222.93C693.142 1227.07 719.707 1229.23 746.772 1229.23C775.811 1229.23 804.275 1226.75 831.964 1221.99C864.201 1259.36 915.014 1278.28 983.305 1278.28C1058.36 1278.28 1132.11 1259.11 1201.48 1231.5Z" fill="black"/>
<path d="M635.221 1179.69C670.856 1127.23 668.331 1087.85 619.437 1038.79C570.542 989.739 542.081 917.979 542.081 917.979C542.081 917.979 531.45 876.301 507.236 880.136C483.022 883.971 465.244 946.254 515.964 984.357C566.684 1022.45 505.864 1048.33 486.35 1012.55C466.836 976.778 413.552 884.803 385.92 867.214C358.3 849.625 338.851 859.479 345.365 895.736C351.878 931.993 467.393 1019.87 456.154 1038.89C444.914 1057.9 405.304 1016.55 405.304 1016.55C405.304 1016.55 281.359 903.302 254.374 932.812C227.389 962.322 274.846 987.048 342.477 1028.15C410.121 1069.25 415.365 1080.1 405.77 1095.65C396.162 1111.2 246.864 984.825 232.84 1038.4C218.83 1091.97 385.208 1107.52 374.939 1144.5C364.671 1181.5 257.741 1074.5 235.87 1116.19C213.987 1157.89 386.762 1206.89 388.16 1207.25C443.969 1221.79 585.705 1252.59 635.221 1179.69Z" fill="black"/>
<path d="M864.806 1179.69C829.171 1127.23 831.696 1087.85 880.591 1038.79C929.485 989.739 957.946 917.979 957.946 917.979C957.946 917.979 968.577 876.301 992.791 880.136C1017.01 883.971 1034.78 946.254 984.064 984.357C933.344 1022.45 994.164 1048.33 1013.68 1012.55C1033.19 976.778 1086.47 884.803 1114.11 867.214C1141.73 849.625 1161.18 859.479 1154.66 895.736C1148.15 931.993 1032.63 1019.87 1043.87 1038.89C1055.11 1057.9 1094.72 1016.55 1094.72 1016.55C1094.72 1016.55 1218.67 903.302 1245.65 932.812C1272.64 962.322 1225.18 987.048 1157.55 1028.15C1089.91 1069.25 1084.66 1080.1 1094.26 1095.65C1103.87 1111.2 1253.16 984.825 1267.19 1038.4C1281.2 1091.97 1114.82 1107.52 1125.09 1144.5C1135.36 1181.5 1242.29 1074.5 1264.16 1116.19C1286.04 1157.89 1113.27 1206.89 1111.87 1207.25C1056.06 1221.79 914.322 1252.59 864.806 1179.69Z" fill="black"/>
<path d="M675.913 853.201C679.674 855.39 683.766 857.524 688.891 860.001C705.59 868.074 725.878 873.106 750.564 873.106C777.366 873.106 799.015 867.175 816.53 857.819C821.193 855.328 825.305 852.779 828.701 850.52C818.286 841.142 806.116 833.688 792.747 828.717C791.172 828.131 789.58 827.58 787.973 827.064C782.46 825.295 776.761 834.148 770.915 843.232C765.317 851.929 759.582 860.838 753.744 860.838C748.268 860.838 742.882 851.802 737.615 842.964C732.157 833.804 726.824 824.857 721.649 826.403C704.266 831.599 688.648 840.906 675.913 853.201Z" fill="black"/>
<path fill-rule="evenodd" clip-rule="evenodd" d="M849.695 285.599C816.641 277.833 782.184 273.727 746.772 273.727C684.644 273.727 625.458 286.368 571.624 309.227C448.998 361.299 354.15 466.394 315.593 595.883C303.37 636.933 296.805 680.435 296.805 725.476C296.805 761.974 301.116 797.461 309.255 831.452C309.366 831.317 309.477 831.183 309.587 831.05C322.652 815.372 341.389 806.727 362.353 806.727C379.135 806.727 396.395 812.304 413.669 823.302C425.128 830.608 437.792 843.556 450.832 859.832C462.913 843.01 479.824 831.83 499.169 828.775C502.872 828.19 506.628 827.891 510.344 827.891H510.357C554.525 827.891 581.096 866.358 591.144 900.964C596.129 912.651 620.058 965.899 656.056 1002.01C710.873 1057.01 724.595 1113.75 697.461 1174.54C713.655 1176.32 730.108 1177.23 746.772 1177.23C747.445 1177.23 748.117 1177.22 748.789 1177.22L749.307 1177.22L750.29 1177.21C767.865 1177.08 785.2 1175.93 802.241 1173.83C775.534 1113.31 789.363 1056.8 843.964 1002.01C879.962 965.899 903.891 912.651 908.876 900.964C918.924 866.358 945.495 827.891 989.663 827.891H989.676C993.392 827.891 997.147 828.19 1000.85 828.775C1020.2 831.83 1037.11 843.01 1049.19 859.832C1062.23 843.556 1074.89 830.608 1086.35 823.302C1103.62 812.304 1120.89 806.727 1137.67 806.727C1156.17 806.727 1172.94 813.46 1185.6 825.819C1192.89 793.547 1196.74 759.963 1196.74 725.476C1196.74 709.883 1195.95 694.474 1194.42 679.288C1174.88 486.115 1034.11 328.922 849.695 285.599ZM652.93 884.744C603.394 843.337 581.677 781.979 581.677 742.068C581.677 711.101 602.797 721.605 636.467 738.35C666.402 753.238 706.256 773.059 750.01 773.059C793.763 773.059 833.618 753.238 863.553 738.35C897.223 721.605 918.343 711.101 918.343 742.068C918.343 780.4 900.71 842.529 852.745 880.809C827.567 900.728 794.093 914.485 750.509 914.485C709.56 914.485 677.534 902.691 652.93 884.744ZM919.726 619.809C914.761 612.591 909.541 605.002 902.523 602.514C896.04 600.216 887.549 603.626 879.395 606.901C868.994 611.078 859.142 615.035 854.701 606.649C837.914 574.953 849.899 535.595 881.471 518.742C913.042 501.889 952.244 513.922 969.031 545.618C985.818 577.315 973.833 616.672 942.261 633.525C932.68 638.64 926.437 629.564 919.726 619.809ZM597.494 602.514C590.477 605.002 585.256 612.591 580.291 619.809C573.581 629.564 567.337 638.64 557.756 633.525C526.185 616.672 514.2 577.315 530.986 545.618C547.773 513.922 586.975 501.889 618.547 518.742C650.118 535.595 662.103 574.953 645.317 606.649C640.876 615.035 631.023 611.078 620.623 606.901C612.468 603.626 603.977 600.216 597.494 602.514ZM1093.15 621.477C1093.15 644.811 1074.31 663.727 1051.07 663.727C1027.83 663.727 1008.98 644.811 1008.98 621.477C1008.98 598.143 1027.83 579.227 1051.07 579.227C1074.31 579.227 1093.15 598.143 1093.15 621.477ZM448.95 663.727C472.192 663.727 491.033 644.811 491.033 621.477C491.033 598.143 472.192 579.227 448.95 579.227C425.708 579.227 406.866 598.143 406.866 621.477C406.866 644.811 425.708 663.727 448.95 663.727Z" fill="black"/>
</svg>
